<svg width="359" height="412" xmlns="http://www.w3.org/2000/svg" xmlns:xlink="http://www.w3.org/1999/xlink" xml:space="preserve" overflow="hidden"><defs><clipPath id="clip0"><rect x="-14" y="-6" width="359" height="412"/></clipPath></defs><g clip-path="url(#clip0)" transform="translate(14 6)"><path d="M10.5002 69.4999C10.5002 43.5425 31.9905 22.4998 58.5001 22.4998 85.0098 22.4998 106.5 43.5425 106.5 69.4999 106.5 95.4574 85.0098 116.5 58.5001 116.5 31.9905 116.5 10.5002 95.4574 10.5002 69.4999Z" stroke="#000000" stroke-width="6.875" stroke-linecap="round" stroke-linejoin="round" stroke-miterlimit="10" fill="none" fill-rule="evenodd"/><path d="M221.5 68.9999C221.5 43.3186 242.99 22.4998 269.5 22.4998 296.01 22.4998 317.5 43.3186 317.5 68.9999 317.5 94.6812 296.01 115.5 269.5 115.5 242.99 115.5 221.5 94.6812 221.5 68.9999Z" stroke="#000000" stroke-width="6.875" stroke-linecap="round" stroke-linejoin="round" stroke-miterlimit="10" fill="none" fill-rule="evenodd"/><path d="M10.5002 304C10.5002 278.319 31.9905 257.5 58.5001 257.5 85.0098 257.5 106.5 278.319 106.5 304 106.5 329.681 85.0098 350.5 58.5001 350.5 31.9905 350.5 10.5002 329.681 10.5002 304Z" stroke="#000000" stroke-width="6.875" stroke-linecap="round" stroke-linejoin="round" stroke-miterlimit="10" fill="none" fill-rule="evenodd"/><path d="M220.5 303C220.5 277.319 241.99 256.5 268.5 256.5 295.01 256.5 316.5 277.319 316.5 303 316.5 328.681 295.01 349.5 268.5 349.5 241.99 349.5 220.5 328.681 220.5 303Z" stroke="#000000" stroke-width="6.875" stroke-linecap="round" stroke-linejoin="round" stroke-miterlimit="10" fill="none" fill-rule="evenodd"/><path d="M0 0 114.606 0.916667" stroke="#000000" stroke-width="4.58333" stroke-linecap="round" stroke-linejoin="round" stroke-miterlimit="10" fill="none" fill-rule="evenodd" transform="matrix(1 0 0 -1 106.5 69.4166)"/><path d="M0 0 142.737 169.007" stroke="#000000" stroke-width="4.58333" stroke-linecap="round" stroke-linejoin="round" stroke-miterlimit="10" fill="none" fill-rule="evenodd" transform="matrix(1 0 0 -1 92.5 270.507)"/><path d="M0 0 0.854232 140.681" stroke="#000000" stroke-width="4.58333" stroke-linecap="round" stroke-linejoin="round" stroke-miterlimit="10" fill="none" fill-rule="evenodd" transform="matrix(-1 0 0 1 269.354 115.5)"/><path d="M58.4999 116.5 58.5003 257.181" stroke="#000000" stroke-width="4.58333" stroke-linecap="round" stroke-linejoin="round" stroke-miterlimit="10" fill="none" fill-rule="evenodd"/><path d="M0 0 113.752 0.916667" stroke="#000000" stroke-width="4.58333" stroke-linecap="round" stroke-linejoin="round" stroke-miterlimit="10" fill="none" fill-rule="evenodd" transform="matrix(1 0 0 -1 106.5 304.417)"/><text font-family="Segoe UI,Segoe UI_MSFontService,sans-serif" font-weight="400" font-size="83" transform="matrix(1 0 0 1 35.75 105)">1</text><text font-family="Segoe UI,Segoe UI_MSFontService,sans-serif" font-weight="400" font-size="83" transform="matrix(1 0 0 1 37.0279 333)">4</text><text font-family="Segoe UI,Segoe UI_MSFontService,sans-serif" font-weight="400" font-size="83" transform="matrix(1 0 0 1 250.687 337)">3</text><text font-family="Segoe UI,Segoe UI_MSFontService,sans-serif" font-weight="400" font-size="83" transform="matrix(1 0 0 1 250.169 99)">2</text></g></svg>